<?xml version="1.0" encoding="utf-8"?>
<!-- Generator: Adobe Illustrator 21.1.0, SVG Export Plug-In . SVG Version: 6.00 Build 0)  -->
<svg version="1.1"
     xmlns="http://www.w3.org/2000/svg"
     x="0px"
     y="0px"
     viewBox="0 0 258.1 273.2"
     style="enable-background:new 0 0 258.1 273.2;"
     xml:space="preserve">
<style type="text/css">
	.st0{display:none;}
	.st1{display:inline;fill:#FFFFFF;}
	.st2{fill:#FFFFFF;}
	.st3{fill:url(#SVGID_1_);}
	.st4{fill:url(#SVGID_2_);}
	.st5{fill:url(#SVGID_3_);}
	.st6{fill:url(#SVGID_4_);}
</style>
<g id="レイヤー_3">
</g>
<g id="レイヤー_2" class="st0">
	<path class="st1" d="M36.1,64.5c17-26.3,38-55.7,87.3-38s68.7,24.3,73.3,40.7s14,23.7,8.7,38c-5.3,14.3-1.4,25.6-8.4,31
		c-13.3,10.1-23.9,16.7-38.1,21.3c-19,6.1-106-3.7-118.3-24.2S36.1,64.5,36.1,64.5z"/>
</g>
<g id="レイヤー_4">
	<path class="st2" d="M201.2,123.4c-5.3,8.7-7.6,16.5-16.3,21.4c-1.4,0.8-2.5,1.7-3.9,2.4c-24.2,11.4-57.3,9-86.3-8.7
		c-17.2-10.5-57.3-9.2-65.3-24.7C18.1,92,44,52,55.8,32.7C76-0.4,118.2,0,159.9,25.4c20.6,12.6,25.6,23.5,32.7,42.4
		C199.8,87.1,211.4,106.7,201.2,123.4z"/>
</g>
<g id="レイヤー_1">
	<g>
		<g>
			<linearGradient id="SVGID_1_" gradientUnits="userSpaceOnUse" x1="0" y1="136.5939" x2="255.8379" y2="136.5939">
				<stop  offset="0" style="stop-color:#113667"/>
				<stop  offset="1" style="stop-color:#0D1632"/>
			</linearGradient>
			<path class="st3" d="M180.2,147.6c0,0,50.6-20.7,28.9-79.5C186.8,7.9,107-21.2,52.3,17.6C8,49-3.4,98.6,0.8,139.9
				c5.4,54.2,38.9,94.7,77.3,115.4c23.2,12.5,43.1,15.7,60.1,17.5l-15.5-51.7l23.4,52c15.1,0.3,31.6-2.7,31.6-2.7l-29.2-62.8
				l39.1,60.5c0,0,8.8-2.2,16.5-5.5c7.6-3.3,16.4-7.8,16.4-7.8l-48.4-63.7l56.3,59c0,0,7-4.4,14.6-10.5c7.6-6.2,12.7-11.6,12.7-11.6
				s-69.9-58.1-93-76.6C126,122,97.3,136,73,127.2c-18.3-6.6-36.5-19.5-28.2-49.7c6.7-24.5,38.3-56.3,72.2-42.4
				c29.9,12.3,14.7,65.7,14.7,65.7s26-41.4,51.9-25.8C216.8,95,180.2,147.6,180.2,147.6z"/>
		</g>
		<g>
			<linearGradient id="SVGID_2_" gradientUnits="userSpaceOnUse" x1="34.3689" y1="189.8995" x2="255.8028" y2="189.8995">
				<stop  offset="0" style="stop-color:#267FB6"/>
				<stop  offset="1" style="stop-color:#0D1632"/>
			</linearGradient>
			<path class="st4" d="M104.8,266.5c12.9,3.8,23.5,5.3,33.4,6.3l-15.5-51.7l23.4,52c15.1,0.3,31.6-2.7,31.6-2.7l-29.2-62.8
				l39.1,60.5c0,0,8.8-2.2,16.5-5.5c7.6-3.3,16.4-7.8,16.4-7.8l-48.4-63.7l56.3,59c0,0,7-4.4,14.6-10.5c7.6-6.2,12.7-11.6,12.7-11.6
				s-69.9-58.1-93-76.6c-30.6-24.5-55.6-19-77.1-21.5c-4.4-0.5-32.4-6.5-39.6-23.4c0,0-16.3,25.4-10.5,75.5
				C40.2,221.6,59.5,253.2,104.8,266.5z"/>
		</g>
		<linearGradient id="SVGID_3_" gradientUnits="userSpaceOnUse" x1="82.4015" y1="81.3331" x2="107.5891" y2="81.3331">
			<stop  offset="0" style="stop-color:#172A4E"/>
			<stop  offset="1" style="stop-color:#0D1632"/>
		</linearGradient>
		<path class="st5" d="M107.2,79.2c1.6,9.2-2.5,17.7-9.3,18.9c-6.8,1.2-13.6-5.3-15.2-14.5s2.5-17.7,9.3-18.9
			C98.8,63.4,105.6,69.9,107.2,79.2z"/>
		<linearGradient id="SVGID_4_" gradientUnits="userSpaceOnUse" x1="149.5824" y1="112.823" x2="174.6963" y2="112.823">
			<stop  offset="0" style="stop-color:#172A4E"/>
			<stop  offset="1" style="stop-color:#0D1632"/>
		</linearGradient>
		<path class="st6" d="M170.4,119.8c-5.2,6.2-13.2,8.1-17.7,4.3c-4.6-3.8-4-12,1.2-18.2c5.2-6.2,13.2-8.1,17.7-4.3
			S175.6,113.6,170.4,119.8z"/>
	</g>
</g>
</svg>
