<?xml version="1.0" encoding="utf-8"?>
<!-- Generator: Adobe Illustrator 21.1.0, SVG Export Plug-In . SVG Version: 6.00 Build 0)  -->
<svg version="1.1"
     id="レイヤー_1"
     xmlns="http://www.w3.org/2000/svg"
     x="0px"
     y="0px"
     viewBox="0 0 597.1 158"
     style="enable-background:new 0 0 597.1 158;"
     xml:space="preserve">
<style type="text/css">
	.st0{fill:#221714;}
	.st1{fill:#FFFFFF;}
	.st2{fill:url(#SVGID_1_);}
	.st3{fill:url(#SVGID_2_);}
	.st4{fill:url(#SVGID_3_);}
	.st5{fill:url(#SVGID_4_);}
</style>
<polygon class="st0" points="581.9,48.2 584.2,48.2 584.2,54.2 585.7,54.2 585.7,48.2 588,48.2 588,46.9 581.9,46.9 "/>
<polygon class="st0" points="595.9,46.9 594.5,46.9 592.8,52 591.1,46.9 589.7,46.9 588.5,54.2 589.8,54.2 590.6,49.6 592.2,54.2
	593.4,54.2 595,49.6 595.8,54.2 597.1,54.2 "/>
<path class="st0" d="M229.4,49.2H220h-0.5v0.5v56.4c0,7.3-0.3,12.2-0.9,14.5c-0.9,3.2-2.2,6-4.1,8.3c-1.8,2.3-4.2,4-6.9,5.3
	c-2.8,1.3-5.7,1.9-8.7,1.9c-3.5,0-7-0.8-10.4-2.5c-3.4-1.6-6-3.7-7.6-6.1c-1.6-2.4-2.7-5.4-3.2-9c-0.3-1.6-0.4-5.8-0.4-12.4V49.7
	v-0.5h-0.5h-9.3H167v0.5v56.4c0,9.5,0.6,16.2,1.7,19.8c1.8,6,5.5,10.9,11,14.5c5.4,3.6,12,5.5,19.6,5.5c7,0,13.1-2,18-5.8
	c4.9-3.9,8.3-8.5,9.9-13.7c1.6-5.2,2.5-12,2.5-20.4V49.7v-0.5H229.4z"/>
<path class="st0" d="M279.2,100.2c7.4-0.1,13.3-1.1,17.6-3.1c4.5-2,8-5,10.5-8.9c2.4-3.9,3.7-8.5,3.7-13.7c0-6.2-1.8-11.5-5.3-15.7
	c-3.5-4.2-8.2-7-13.8-8.3c-3.7-0.9-10.8-1.3-21.2-1.3H252h-0.5v0.5v93.4v0.5h0.5h9.3h0.5v-0.5v-42.9h4.5l33.4,43.2l0.2,0.2h0.2h11.5
	h1l-0.6-0.8L279.2,100.2z M261.9,90.1V59.4h16c6.3,0,10.9,0.5,13.5,1.6c2.6,1.1,4.8,2.8,6.4,5.3c1.6,2.5,2.5,5.2,2.5,8.3
	c0,3.1-0.8,6-2.4,8.5c-1.6,2.5-3.9,4.3-6.8,5.5c-2.9,1.2-7.5,1.7-13.6,1.7L261.9,90.1z"/>
<path class="st0" d="M382.9,85.3c-7.1-9-16.7-13.6-28.6-13.6c-11.5,0-20.9,4.5-27.8,13.3c-5.4,6.9-8.2,14.9-8.2,23.7
	c0,9.4,3.2,17.9,9.7,25.4c6.4,7.5,15.4,11.3,26.8,11.3c5.1,0,9.8-0.8,13.8-2.3c4.1-1.6,7.8-3.9,11-6.9c3.2-3,6.1-7,8.6-11.8l0.2-0.4
	l-0.4-0.2l-7.5-3.9l-0.4-0.2l-0.2,0.4c-2.7,4.4-5.2,7.7-7.5,9.7c-2.3,2-5.1,3.6-8.3,4.8c-3.3,1.2-6.6,1.8-10.1,1.8
	c-7.1,0-13.2-2.5-18-7.5c-4.7-4.9-7.3-11.3-7.5-18.9h61.6h0.5l0-0.5C390.5,99.7,387.9,91.7,382.9,85.3z M329.5,101.1
	c1.8-5.9,4.4-10.4,7.7-13.4c4.8-4.3,10.5-6.4,17.1-6.4c4,0,7.9,0.9,11.5,2.6c3.6,1.7,6.6,4,8.8,6.7c2.1,2.6,3.8,6.2,4.9,10.6H329.5z
	"/>
<polygon class="st0" points="419.6,73.5 419.6,48.4 419.6,47.9 419.1,47.9 410.2,47.9 409.7,47.9 409.7,48.4 409.7,73.5 398.1,73.5
	397.6,73.5 397.6,74 397.6,81.7 397.6,82.2 398.1,82.2 409.7,82.2 409.7,143.1 409.7,143.6 410.2,143.6 419.1,143.6 419.6,143.6
	419.6,143.1 419.6,82.2 433.2,82.2 433.7,82.2 433.7,81.7 433.7,74 433.7,73.5 433.2,73.5 "/>
<path class="st0" d="M503.4,73.5h-0.5V74v11.2c-3.3-4.3-7.1-7.6-11.4-9.8c-4.6-2.4-9.9-3.7-15.6-3.7c-9.9,0-18.5,3.6-25.6,10.7
	c-7,7.1-10.6,15.8-10.6,25.9c0,10.2,3.5,19.1,10.5,26.2c7,7.2,15.5,10.8,25.4,10.8c5.6,0,10.7-1.2,15.4-3.5
	c4.3-2.1,8.3-5.3,11.8-9.3v10.5v0.5h0.5h8.8h0.5v-0.5V74v-0.5h-0.5H503.4z M500,122.8c-2.3,4.1-5.6,7.4-9.9,9.8
	c-4.3,2.4-8.8,3.6-13.6,3.6c-4.7,0-9.2-1.2-13.3-3.6c-4.1-2.4-7.4-5.8-9.9-10.2c-2.4-4.3-3.7-9-3.7-13.7c0-4.8,1.2-9.4,3.6-13.7
	c2.4-4.3,5.7-7.7,9.8-10.1c4.1-2.4,8.6-3.6,13.4-3.6c7.5,0,13.9,2.7,19.1,7.9c5.1,5.2,7.8,11.9,7.8,19.7
	C503.4,114,502.3,118.7,500,122.8z"/>
<polygon class="st0" points="535.2,73.5 534.7,73.5 534.7,74 534.7,143.1 534.7,143.6 535.2,143.6 544.1,143.6 544.6,143.6
	544.6,143.1 544.6,74 544.6,73.5 544.1,73.5 "/>
<polygon class="st0" points="568.2,46.9 567.7,46.9 567.7,47.4 567.7,143.1 567.7,143.6 568.2,143.6 577.1,143.6 577.6,143.6
	577.6,143.1 577.6,47.4 577.6,46.9 577.1,46.9 "/>
<path class="st0" d="M539.6,46.9c-2.2,0-4.1,0.8-5.7,2.4c-1.6,1.6-2.4,3.5-2.4,5.7c0,2.2,0.8,4.1,2.4,5.7c1.6,1.6,3.5,2.4,5.7,2.4
	c2.2,0,4.1-0.8,5.7-2.4c1.6-1.6,2.4-3.5,2.4-5.7c0-2.2-0.8-4.2-2.4-5.7C543.7,47.7,541.8,46.9,539.6,46.9z"/>
<g>
	<path class="st1" d="M116.4,71.4c-3.1,5-4.4,9.6-9.4,12.4c-0.8,0.4-1.4,1-2.3,1.4c-14,6.6-33.2,5.2-49.9-5
		C44.8,74,21.6,74.8,17,65.8c-6.5-12.7,8.5-35.7,15.3-46.9C43.9-0.2,68.4,0,92.4,14.7c11.9,7.3,14.8,13.6,18.9,24.5
		C115.5,50.3,122.3,61.7,116.4,71.4z"/>
	<g>
		<g>
			<linearGradient id="SVGID_1_" gradientUnits="userSpaceOnUse" x1="0" y1="78.9796" x2="147.9274" y2="78.9796">
				<stop  offset="0" style="stop-color:#113667"/>
				<stop  offset="1" style="stop-color:#0D1632"/>
			</linearGradient>
			<path class="st2" d="M104.2,85.3c0,0,29.2-12,16.7-45.9C108,4.6,61.9-12.3,30.3,10.2C4.6,28.4-1.9,57,0.5,80.9
				c3.1,31.3,22.5,54.7,44.7,66.7c13.4,7.3,24.9,9.1,34.7,10.1l-9-29.9l13.6,30.1c8.8,0.2,18.3-1.6,18.3-1.6l-16.9-36.3l22.6,35
				c0,0,5.1-1.3,9.5-3.2c4.4-1.9,9.5-4.5,9.5-4.5l-28-36.8l32.5,34.1c0,0,4.1-2.5,8.5-6.1c4.4-3.6,7.3-6.7,7.3-6.7
				s-40.4-33.6-53.8-44.3c-21.3-17.1-37.9-9-52-14c-10.6-3.8-21.1-11.3-16.3-28.7C29.7,30.7,48,12.3,67.6,20.3
				c17.3,7.1,8.5,38,8.5,38s15-24,30-14.9C125.3,55,104.2,85.3,104.2,85.3z"/>
		</g>
		<g>
			<linearGradient id="SVGID_2_" gradientUnits="userSpaceOnUse" x1="19.8723" y1="109.8013" x2="147.9071" y2="109.8013">
				<stop  offset="0" style="stop-color:#267FB6"/>
				<stop  offset="1" style="stop-color:#0D1632"/>
			</linearGradient>
			<path class="st3" d="M60.6,154.1c7.5,2.2,13.6,3.1,19.3,3.7l-9-29.9l13.6,30.1c8.8,0.2,18.3-1.6,18.3-1.6l-16.9-36.3l22.6,35
				c0,0,5.1-1.3,9.5-3.2c4.4-1.9,9.5-4.5,9.5-4.5l-28-36.8l32.5,34.1c0,0,4.1-2.5,8.5-6.1c4.4-3.6,7.3-6.7,7.3-6.7
				s-40.4-33.6-53.8-44.3C76.4,73.4,62,76.6,49.5,75.2c-2.5-0.3-18.7-3.7-22.9-13.6c0,0-9.4,14.7-6.1,43.7
				C23.3,128.1,34.4,146.4,60.6,154.1z"/>
		</g>
		<linearGradient id="SVGID_3_" gradientUnits="userSpaceOnUse" x1="47.6452" y1="47.0274" x2="62.2088" y2="47.0274">
			<stop  offset="0" style="stop-color:#172A4E"/>
			<stop  offset="1" style="stop-color:#0D1632"/>
		</linearGradient>
		<path class="st4" d="M62,45.8c0.9,5.3-1.5,10.2-5.4,10.9c-3.9,0.7-7.8-3.1-8.8-8.4c-0.9-5.3,1.5-10.2,5.4-10.9
			C57.1,36.7,61.1,40.4,62,45.8z"/>
		<linearGradient id="SVGID_4_" gradientUnits="userSpaceOnUse" x1="86.4897" y1="65.2351" x2="101.0107" y2="65.2351">
			<stop  offset="0" style="stop-color:#172A4E"/>
			<stop  offset="1" style="stop-color:#0D1632"/>
		</linearGradient>
		<path class="st5" d="M98.5,69.2c-3,3.6-7.6,4.7-10.2,2.5S86,64.8,89,61.2c3-3.6,7.6-4.7,10.2-2.5C101.9,60.9,101.5,65.7,98.5,69.2
			z"/>
	</g>
</g>
</svg>
